<svg width="21" height="14" viewBox="0 0 21 14" fill="none" xmlns="http://www.w3.org/2000/svg">
<path d="M1.92538 9.18066C2.81259 4.75638 6.52144 1.61277 10.6934 1.61277C14.8641 1.61277 18.5729 4.75638 19.4614 9.18066C19.4966 9.35622 19.5975 9.51007 19.7419 9.60837C19.8864 9.70667 20.0625 9.74137 20.2315 9.70482C20.4006 9.66827 20.5488 9.56349 20.6434 9.4135C20.7381 9.26352 20.7715 9.08063 20.7363 8.90507C19.7255 3.87287 15.4976 0.261841 10.6934 0.261841C5.8892 0.261841 1.6613 3.87287 0.650508 8.90507C0.615316 9.08063 0.648724 9.26352 0.743382 9.4135C0.83804 9.56349 0.986195 9.66827 1.15525 9.70482C1.32431 9.74137 1.50043 9.70667 1.64485 9.60837C1.78928 9.51007 1.89019 9.35622 1.92538 9.18066ZM10.6804 4.31462C11.888 4.31462 13.0461 4.81278 13.8999 5.69949C14.7538 6.58621 15.2335 7.78886 15.2335 9.04287C15.2335 10.2969 14.7538 11.4995 13.8999 12.3862C13.0461 13.273 11.888 13.7711 10.6804 13.7711C9.47283 13.7711 8.31472 13.273 7.46084 12.3862C6.60697 11.4995 6.12726 10.2969 6.12726 9.04287C6.12726 7.78886 6.60697 6.58621 7.46084 5.69949C8.31472 4.81278 9.47283 4.31462 10.6804 4.31462Z" fill="#949BA5"/>
</svg>
